<svg xmlns="http://www.w3.org/2000/svg" viewBox="0 0 50 50" width="50" height="50" style="fill: rgb(255, 255, 255);">
    <path d="M 10 8 C 8.333 8 6.862125 8.8288906 5.953125 10.087891 C 6.295125 10.035891 6.644 10 7 10 L 43 10 C 43.356 10 43.704875 10.035891 44.046875 10.087891 C 43.137875 8.8288906 41.667 8 40 8 L 10 8 z M 7 12 C 4.243 12 2 14.243 2 17 L 2 37 C 2 39.757 4.243 42 7 42 L 18 42 C 18.15 42 18.298313 41.983797 18.445312 41.966797 C 19.463313 41.814797 20.342812 41.147641 20.757812 40.181641 L 22.660156 34.595703 C 23.084156 33.598703 23.992 33 25 33 C 26.009 33 26.9165 33.598391 27.3125 34.525391 L 29.269531 40.253906 C 29.659531 41.157906 30.537688 41.815797 31.554688 41.966797 C 31.702688 41.983797 31.849 42 32 42 L 43 42 C 45.757 42 48 39.757 48 37 L 48 17 C 48 14.243 45.757 12 43 12 L 7 12 z M 14.5 22 C 17.538 22 20 24.462 20 27.5 C 20 30.538 17.538 33 14.5 33 C 11.462 33 9 30.538 9 27.5 C 9 24.462 11.462 22 14.5 22 z M 35.5 22 C 38.538 22 41 24.462 41 27.5 C 41 30.538 38.538 33 35.5 33 C 32.462 33 30 30.538 30 27.5 C 30 24.462 32.462 22 35.5 22 z M 25 35 C 24.737 35 24.592484 35.189078 24.521484 35.330078 L 23.273438 39 L 26.728516 39 L 25.453125 35.269531 C 25.364125 35.104531 25.191 35 25 35 z"/>
</svg>